<svg id="Capa_1" enable-background="new 0 0 511.738 511.738" height="512" viewBox="0 0 511.738 511.738" width="512" xmlns="http://www.w3.org/2000/svg"><g><path d="m477.19 204.079c-17.546-17.546-46.093-17.546-63.64 0l-80.246 80.246c-5.852 5.852-15.361 5.852-21.213 0s-5.852-15.361 0-21.213l186.313-186.313c17.546-17.546 17.546-46.093 0-63.64s-46.093-17.546-63.64 0l-186.312 186.313c-5.852 5.852-15.361 5.852-21.213 0s-5.852-15.361 0-21.213l101.459-101.46c17.546-17.546 17.546-46.093 0-63.64s-46.093-17.546-63.64 0l-218.132 218.133c-51.418 51.418-72.379 160.966 0 233.345 62.801 62.801 170.545 62.801 233.345 0l196.919-196.919c17.547-17.546 17.547-46.093 0-63.639z" fill="#ff9100"/><path d="m280.271 464.637 196.919-196.919c17.546-17.546 17.546-46.093 0-63.64-17.546-17.546-46.093-17.546-63.64 0l-80.246 80.246c-5.852 5.852-15.361 5.852-21.213 0s-5.852-15.361 0-21.213l186.313-186.312c17.546-17.546 17.546-46.093 0-63.64l-451.478 451.478c62.801 62.801 170.545 62.801 233.345 0z" fill="#ff641a"/><circle cx="163.599" cy="347.965" fill="#704c55" r="105"/><path d="m237.845 422.211c40.935-40.935 40.935-107.558 0-148.492l-148.492 148.492c40.935 40.935 107.557 40.935 148.492 0z" fill="#5a344b"/><circle cx="131.779" cy="358.571" fill="#d97f4a" r="15"/><circle cx="163.599" cy="305.538" fill="#d97f4a" r="15"/><circle cx="195.419" cy="358.571" fill="#b35f49" r="15"/></g></svg>