<?xml version="1.0"?>
<svg xmlns="http://www.w3.org/2000/svg" viewBox="0 0 64 64" width="512" height="512"><circle cx="44" cy="32" fill="#e9686a" r="16"/><circle cx="44" cy="32" fill="#e9686a" r="16"/><circle cx="44" cy="32" fill="#fcf05a" r="12"/><g fill="#fdbd40"><path d="m42 36h-3a1 1 0 0 1 0-2h3a1 1 0 0 1 0 2z"/><path d="m28 20h-12a1 1 0 0 1 0-2h12a1 1 0 0 1 0 2z"/><path d="m46 40h-4a1 1 0 0 1 0-2h4a1 1 0 0 1 0 2z"/><path d="m38 32h-1a1 1 0 0 1 0-2h1a1 1 0 0 1 0 2z"/><path d="m13 20h-4a1 1 0 0 1 0-2h4a1 1 0 0 1 0 2z"/><path d="m22 40h-12a1 1 0 0 1 0-2h12a1 1 0 0 1 0 2z"/><path d="m7 40h-4a1 1 0 0 1 0-2h4a1 1 0 0 1 0 2z"/><path d="m28 44h-12a1 1 0 0 1 0-2h12a1 1 0 0 1 0 2z"/><path d="m13 44h-4a1 1 0 0 1 0-2h4a1 1 0 0 1 0 2z"/><path d="m25 24h-18a1 1 0 0 1 0-2h18a1 1 0 0 1 0 2z"/><path d="m4 24h-1a1 1 0 0 1 0-2h1a1 1 0 0 1 0 2z"/></g><path d="m20 12a1 1 0 0 1 -1-1 3 3 0 0 0 -3-3 1 1 0 0 1 0-2 3 3 0 0 0 3-3 1 1 0 0 1 2 0 3 3 0 0 0 3 3 1 1 0 0 1 0 2 3 3 0 0 0 -3 3 1 1 0 0 1 -1 1zm-1-5a5.07 5.07 0 0 1 1 1 5.07 5.07 0 0 1 1-1 5.07 5.07 0 0 1 -1-1 5.07 5.07 0 0 1 -1 1z" fill="#fcf05a"/><path d="m29 11h2v2h-2z" fill="#fcf05a"/><path d="m29 7h2v2h-2z" fill="#fcf05a"/><path d="m31 9h2v2h-2z" fill="#fcf05a"/><path d="m27 9h2v2h-2z" fill="#fcf05a"/><ellipse cx="49.5" cy="29" fill="#e9686a" rx="1.5" ry="2"/><path d="m54 15a1 1 0 0 1 -.64-.232l-4.875-4.062-.536 1.61a1 1 0 0 1 -1.4.579l-6-3a1 1 0 0 1 .894-1.79l4.969 2.485.635-1.906a1 1 0 0 1 1.589-.452l6 5a1 1 0 0 1 -.636 1.768z" fill="#e9686a"/><path d="m41 56a1 1 0 0 1 -.448-1.9l6-3a1 1 0 0 1 1.4.579l.536 1.61 4.875-4.062a1 1 0 0 1 1.28 1.536l-6 5a1 1 0 0 1 -1.589-.452l-.635-1.906-4.972 2.495a1 1 0 0 1 -.447.1z" fill="#e9686a"/></svg>
